<?xml version="1.0" encoding="utf-8"?>
<!-- Generator: Adobe Illustrator 16.0.0, SVG Export Plug-In . SVG Version: 6.00 Build 0)  -->
<!DOCTYPE svg PUBLIC "-//W3C//DTD SVG 1.1 Tiny//EN" "http://www.w3.org/Graphics/SVG/1.1/DTD/svg11-tiny.dtd">
<svg version="1.1" baseProfile="tiny" id="Layer_1" xmlns="http://www.w3.org/2000/svg" xmlns:xlink="http://www.w3.org/1999/xlink"
	 x="0px" y="0px" width="30px" height="30px" viewBox="0 0 30 30" xml:space="preserve">
<g>
	<path fill="#414042" d="M27.953,0.45c-7.67,6.527-14.219,14.124-20.396,22.053l0,0c-2.435-1.292-5.075-2.97-7.493-4.123L0,18.257
		V3.649C0,1.634,1.634,0,3.649,0h22.701c0.574,0,1.118,0.133,1.602,0.369L27.953,0.45z"/>
	<path fill="#414042" d="M29.704,2.207C29.895,2.649,30,3.137,30,3.649v22.702C30,28.366,28.366,30,26.351,30c0,0-10.294,0-15.431,0
		l-0.014-0.092C15.896,19.595,22.495,10.31,29.642,2.203L29.704,2.207z"/>
	<path fill="#414042" d="M8.076,30H3.649C1.634,30,0,28.366,0,26.351V20.84l0.077-0.008c2.652,2.988,5.146,6.183,8.023,9.06
		L8.076,30z"/>
</g>
<g>
</g>
<g>
</g>
<g>
</g>
<g>
</g>
<g>
</g>
<g>
</g>
</svg>
