<?xml version="1.0" encoding="utf-8"?>
<!-- Generator: Adobe Illustrator 16.0.0, SVG Export Plug-In . SVG Version: 6.00 Build 0)  -->
<!DOCTYPE svg PUBLIC "-//W3C//DTD SVG 1.1 Tiny//EN" "http://www.w3.org/Graphics/SVG/1.1/DTD/svg11-tiny.dtd" [
	<!ENTITY ns_flows "http://ns.adobe.com/Flows/1.0/">
	<!ENTITY ns_extend "http://ns.adobe.com/Extensibility/1.0/">
	<!ENTITY ns_ai "http://ns.adobe.com/AdobeIllustrator/10.0/">
	<!ENTITY ns_graphs "http://ns.adobe.com/Graphs/1.0/">
]>
<svg version="1.1" baseProfile="tiny" id="Layer_1" xmlns:x="&ns_extend;" xmlns:i="&ns_ai;" xmlns:graph="&ns_graphs;"
	 xmlns="http://www.w3.org/2000/svg" xmlns:xlink="http://www.w3.org/1999/xlink" xmlns:a="http://ns.adobe.com/AdobeSVGViewerExtensions/3.0/"
	 x="0px" y="0px" width="188px" height="19.997px" viewBox="0 0 188 19.997" xml:space="preserve">
<g>
	<path d="M118.959,12.751c-0.078,2.249-0.66,4.002-1.741,5.25c-1.084,1.25-2.741,1.873-4.974,1.873
		c-4.326,0-6.408-2.374-6.242-7.123c0.08-2.283,0.661-4.051,1.744-5.299c1.083-1.251,2.748-1.874,4.998-1.874
		c2.232,0,3.845,0.623,4.841,1.874C118.582,8.7,119.041,10.468,118.959,12.751z M115.52,12.751c0.053-1.485-0.141-2.57-0.582-3.251
		c-0.44-0.684-1.205-1.025-2.295-1.025c-1.081,0-1.875,0.352-2.38,1.05c-0.506,0.701-0.785,1.776-0.835,3.227
		c-0.05,1.443,0.15,2.508,0.605,3.187c0.453,0.684,1.224,1.025,2.314,1.025c1.073,0,1.857-0.336,2.353-1.012
		C115.196,15.277,115.471,14.21,115.52,12.751z"/>
	<path d="M129.76,9.21c-0.336-0.172-0.79-0.258-1.355-0.258c-0.62,0-1.21,0.147-1.775,0.444c-0.562,0.299-1.742,1.063-1.796,2.612
		l-0.261,7.468h-3.323l0.472-13.512h3.323l-0.066,1.934c0.588-0.621,1.168-1.228,1.881-1.537c1.299-0.559,2.726-0.513,3.012-0.332
		L129.76,9.21z"/>
	<path d="M173.819,9.21c-0.336-0.172-0.79-0.258-1.354-0.258c-0.617,0-1.21,0.147-1.774,0.444c-0.562,0.299-1.743,1.063-1.797,2.612
		l-0.263,7.468h-3.32l0.472-13.512h3.32l-0.065,1.934c0.588-0.621,1.17-1.228,1.883-1.537c1.298-0.559,2.723-0.513,3.008-0.332
		L173.819,9.21z"/>
	<path d="M145.861,19.477h-3.025l-2.741-8.604l-3.35,8.604h-3.04l-3.213-13.512h3.453l1.783,8.707l3.329-8.707h2.514l2.748,8.628
		l2.312-8.628h3.323L145.861,19.477z"/>
	<path d="M159.14,19.477l0.049-1.405c-1.354,1.203-2.785,1.803-4.286,1.803c-1.494,0-2.61-0.394-3.346-1.178
		c-0.737-0.786-1.083-1.794-1.041-3.021c0.033-0.961,0.255-1.757,0.668-2.384c0.414-0.627,1.01-1.118,1.792-1.475
		c0.78-0.355,1.895-0.605,3.34-0.754l2.857-0.27l0.02-0.605c0.027-0.755-0.181-1.271-0.625-1.551
		c-0.448-0.279-1.108-0.419-1.983-0.419c-0.723,0-1.346,0.12-1.873,0.36c-0.528,0.239-0.925,0.585-1.188,1.029l-2.531-1.662
		c0.479-0.764,1.216-1.349,2.199-1.756c0.984-0.409,2.162-0.612,3.539-0.612c2.102,0,3.605,0.366,4.513,1.099
		c0.904,0.734,1.329,1.94,1.271,3.613l-0.319,9.186H159.14z M159.087,13.203l-1.69,0.153c-1.197,0.103-2.066,0.332-2.606,0.683
		c-0.539,0.354-0.823,0.88-0.848,1.588c-0.021,0.617,0.136,1.039,0.471,1.264c0.336,0.229,0.786,0.342,1.354,0.342
		c0.403,0,0.9-0.124,1.488-0.379c0.588-0.254,1.169-0.609,1.743-1.077L159.087,13.203z"/>
</g>
<path d="M184.353,0.098l-0.232,6.67c-0.425-0.404-0.967-0.736-1.627-0.999c-0.661-0.262-1.308-0.393-1.944-0.393
	c-1.794,0-3.209,0.637-4.245,1.907c-1.034,1.272-1.596,3.052-1.677,5.346c-0.078,2.242,0.312,3.976,1.172,5.204
	c0.858,1.227,2.14,1.84,3.838,1.84c0.877,0,1.663-0.151,2.36-0.464c0.598-0.262,1.172-0.611,1.725-1.034l-0.046,1.291h0.002
	l-0.002,0.01h3.323l0.675-19.378H184.353z M180.628,16.739c-0.928,0-1.599-0.371-2.015-1.106c-0.417-0.741-0.602-1.759-0.557-3.055
	c0.046-1.314,0.353-2.356,0.922-3.121c0.566-0.771,1.297-1.155,2.191-1.155c0.539,0,1.065,0.122,1.576,0.369
	c0.511,0.244,1.282,0.694,1.232,2.162l-0.138,3.933c-0.031,0.887-0.938,1.341-1.518,1.594
	C181.742,16.611,181.178,16.739,180.628,16.739z"/>
<g>
	<path d="M10.939,13.591c0.017,1.202,0.28,2.063,0.784,2.59c0.504,0.523,1.32,0.786,2.446,0.786c0.652,0,1.228-0.086,1.728-0.245
		c0.498-0.165,0.941-0.478,1.327-0.943l2.411,1.767c-0.568,0.782-1.292,1.364-2.167,1.755c-0.876,0.382-2.062,0.576-3.555,0.576
		c-2.226,0-3.864-0.586-4.917-1.753c-1.055-1.164-1.54-2.931-1.458-5.293c0.168-4.833,2.417-7.25,6.745-7.25
		c1.922,0,3.371,0.542,4.341,1.628c0.971,1.088,1.42,2.668,1.348,4.747l-0.057,1.636H10.939z M16.698,11.299
		c0.072-2.052-0.791-3.08-2.584-3.08c-0.594,0-1.081,0.103-1.466,0.303c-0.385,0.202-0.698,0.503-0.939,0.902
		c-0.24,0.399-0.441,1.022-0.6,1.875H16.698z"/>
	<path d="M25.132,13.591c0.017,1.202,0.279,2.063,0.783,2.59c0.507,0.523,1.323,0.786,2.447,0.786c0.652,0,1.228-0.086,1.728-0.245
		c0.499-0.165,0.941-0.478,1.328-0.943l2.409,1.767c-0.568,0.782-1.29,1.364-2.166,1.755c-0.876,0.382-2.062,0.576-3.556,0.576
		c-2.225,0-3.862-0.586-4.917-1.753c-1.054-1.164-1.54-2.931-1.457-5.293c0.169-4.833,2.416-7.25,6.745-7.25
		c1.921,0,3.369,0.542,4.339,1.628c0.97,1.088,1.419,2.668,1.347,4.747l-0.057,1.636H25.132z M30.892,11.299
		c0.072-2.052-0.791-3.08-2.585-3.08c-0.593,0-1.081,0.103-1.466,0.303c-0.385,0.202-0.698,0.503-0.938,0.902
		c-0.243,0.399-0.442,1.022-0.601,1.875H30.892z"/>
</g>
<path d="M45.655,0.1l-0.233,6.671C45,6.366,44.456,6.035,43.796,5.772c-0.661-0.262-1.308-0.393-1.943-0.393
	c-1.796,0-3.211,0.635-4.247,1.906c-1.037,1.271-1.594,3.054-1.675,5.344c-0.078,2.244,0.313,3.976,1.17,5.204
	c0.859,1.227,2.138,1.842,3.839,1.842c0.875,0,1.661-0.153,2.359-0.462c0.599-0.266,1.172-0.613,1.723-1.038l-0.045,1.301h0.003
	l-0.004,0.009h3.324L48.979,0.1H45.655z M41.932,16.741c-0.928,0-1.599-0.373-2.016-1.108c-0.417-0.739-0.602-1.759-0.557-3.053
	c0.045-1.314,0.353-2.354,0.921-3.125c0.569-0.767,1.297-1.151,2.191-1.151c0.541,0,1.066,0.122,1.578,0.367
	c0.511,0.244,1.282,0.694,1.23,2.162l-0.138,3.935c-0.031,0.885-0.937,1.339-1.517,1.594C43.046,16.615,42.48,16.741,41.932,16.741z
	"/>
<g>
	<path fill="#006F83" d="M59.531,11.897c-0.198-0.598-0.013-1.236-0.013-1.9c0-0.67-0.183-1.316,0.019-1.918l-3.243-0.576
		c-0.208,0.797-0.611,1.633-0.611,2.494c0,0.943,0.425,1.857,0.673,2.725L59.531,11.897z"/>
	<path fill="#6457A4" d="M90.938,11.81c0.109-0.588,0.459-1.193,0.459-1.812c0-0.844-0.399-1.664-0.6-2.449l-3.339,0.297
		c0.256,0.668,0.104,1.395,0.104,2.152c0,0.711,0.169,1.393-0.056,2.025L90.938,11.81z"/>
	<path fill="none" d="M67.349,13.479l-5.122-3.482l5.122-3.481V13.479z"/>
	<path fill="none" d="M80.009,6.515l5.122,3.482l-5.122,3.482V6.515z"/>
	<linearGradient id="SVGID_1_" gradientUnits="userSpaceOnUse" x1="62.5659" y1="20.9717" x2="84.5128" y2="-0.9752">
		<stop  offset="0.5016" style="stop-color:#006F83"/>
		<stop  offset="0.8" style="stop-color:#6457A4"/>
		<a:midPointStop  offset="0.5016" style="stop-color:#006F83"/>
		<a:midPointStop  offset="0.5" style="stop-color:#006F83"/>
		<a:midPointStop  offset="0.8" style="stop-color:#6457A4"/>
	</linearGradient>
	<path fill="url(#SVGID_1_)" d="M81.51,0.11c-2.961,0-5.742,1.315-7.633,3.609c-1.454,1.765-2.255,3.995-2.255,6.278
		c0,3.338-2.714,6.053-6.051,6.053s-6.052-2.715-6.052-6.053h-3.835c0,5.455,4.436,9.891,9.888,9.891
		c2.96,0,5.742-1.316,7.632-3.611c1.454-1.764,2.256-3.994,2.256-6.279c0-3.336,2.714-6.051,6.051-6.051
		c3.336,0,6.052,2.715,6.052,6.051h3.835C91.396,4.545,86.961,0.11,81.51,0.11z"/>
	<linearGradient id="SVGID_2_" gradientUnits="userSpaceOnUse" x1="57.3101" y1="12.0605" x2="69.767" y2="-0.3964">
		<stop  offset="0.2" style="stop-color:#006F83"/>
		<stop  offset="0.9" style="stop-color:#000002"/>
		<a:midPointStop  offset="0.2" style="stop-color:#006F83"/>
		<a:midPointStop  offset="0.5" style="stop-color:#006F83"/>
		<a:midPointStop  offset="0.9" style="stop-color:#000002"/>
	</linearGradient>
	<path fill="url(#SVGID_2_)" d="M65.571,3.946c2.019,0,3.878,1.007,4.995,2.639c0.413-1.321,1.063-2.563,1.914-3.65
		C70.619,1.11,68.18,0.11,65.571,0.11c-5.452,0-9.888,4.436-9.888,9.887h3.835C59.519,6.661,62.234,3.946,65.571,3.946z"/>
	<linearGradient id="SVGID_3_" gradientUnits="userSpaceOnUse" x1="77.3135" y1="20.3936" x2="89.7716" y2="7.9354">
		<stop  offset="0.1" style="stop-color:#000002"/>
		<stop  offset="0.8" style="stop-color:#6457A4"/>
		<a:midPointStop  offset="0.1" style="stop-color:#000002"/>
		<a:midPointStop  offset="0.5" style="stop-color:#000002"/>
		<a:midPointStop  offset="0.8" style="stop-color:#6457A4"/>
	</linearGradient>
	<path fill="url(#SVGID_3_)" d="M81.51,16.05c-2.019,0-3.878-1.008-4.995-2.639c-0.413,1.322-1.063,2.564-1.914,3.65
		c1.86,1.824,4.299,2.826,6.909,2.826c5.451,0,9.887-4.436,9.887-9.891h-3.835C87.562,13.335,84.846,16.05,81.51,16.05z"/>
	<polygon fill="#6457A4" points="80.009,6.515 80.009,13.479 85.13,9.997 	"/>
	<polygon fill="#006F83" points="67.349,13.479 67.349,6.516 62.227,9.997 	"/>
</g>
<g>
	<path d="M7.639,3.308C7.034,3.104,6.448,3.002,5.88,3.002c-0.646,0-1.094,0.134-1.345,0.401C4.284,3.67,4.146,4.144,4.123,4.823
		L4.078,6.121H6.79L6.699,8.73H3.986L3.611,19.477H0.327L0.838,4.823c0.059-1.656,0.51-2.852,1.354-3.59
		c0.845-0.738,2.09-1.107,3.737-1.107c0.772,0,1.588,0.106,2.446,0.318L7.639,3.308z"/>
</g>
<g>
	<path d="M105.763,3.306C105.157,3.102,104.572,3,104.003,3c-0.646,0-1.094,0.134-1.346,0.401c-0.25,0.268-0.388,0.741-0.413,1.419
		L102.2,6.119h2.711l-0.091,2.611h-2.711l-0.375,10.745H98.45L98.961,4.82c0.059-1.655,0.509-2.851,1.354-3.59
		c0.844-0.738,2.09-1.108,3.736-1.108c0.773,0,1.587,0.106,2.446,0.318L105.763,3.306z"/>
</g>
</svg>
