<?xml version="1.0" encoding="utf-8"?>
<!-- Generator: Adobe Illustrator 16.0.0, SVG Export Plug-In . SVG Version: 6.00 Build 0)  -->
<!DOCTYPE svg PUBLIC "-//W3C//DTD SVG 1.1 Tiny//EN" "http://www.w3.org/Graphics/SVG/1.1/DTD/svg11-tiny.dtd" [
	<!ENTITY ns_flows "http://ns.adobe.com/Flows/1.0/">
	<!ENTITY ns_extend "http://ns.adobe.com/Extensibility/1.0/">
	<!ENTITY ns_ai "http://ns.adobe.com/AdobeIllustrator/10.0/">
	<!ENTITY ns_graphs "http://ns.adobe.com/Graphs/1.0/">
]>
<svg version="1.1" baseProfile="tiny" id="Layer_1" xmlns:x="&ns_extend;" xmlns:i="&ns_ai;" xmlns:graph="&ns_graphs;"
	 xmlns="http://www.w3.org/2000/svg" xmlns:xlink="http://www.w3.org/1999/xlink" xmlns:a="http://ns.adobe.com/AdobeSVGViewerExtensions/3.0/"
	 x="0px" y="0px" width="458px" height="85px" viewBox="0 0 458 85" xml:space="preserve">
<linearGradient id="SVGID_1_" gradientUnits="userSpaceOnUse" x1="229" y1="84.0088" x2="229" y2="0.1138">
	<stop  offset="0" style="stop-color:#727373"/>
	<stop  offset="1" style="stop-color:#222223"/>
	<a:midPointStop  offset="0" style="stop-color:#727373"/>
	<a:midPointStop  offset="0.5" style="stop-color:#727373"/>
	<a:midPointStop  offset="1" style="stop-color:#222223"/>
</linearGradient>
<path fill="url(#SVGID_1_)" d="M77.649,1.73C56.357,19.852,38.176,40.945,21.027,62.956l0,0C14.269,59.367,6.936,54.71,0.224,51.509
	l-0.179-0.338V10.612C0.045,5.016,4.58,0.48,10.176,0.48h63.026c1.596,0,3.104,0.368,4.446,1.024L77.649,1.73z M82.337,6.596
	c-19.841,22.511-38.162,48.286-52.013,76.92l0.038,0.255c14.261,0,42.843,0,42.84,0c5.598,0,10.133-4.535,10.133-10.133V10.612
	c0-1.423-0.293-2.777-0.824-4.006L82.337,6.596z M22.533,83.471C14.548,75.484,7.622,66.61,0.259,58.316l-0.214,0.024v15.297
	c0,5.598,4.535,10.133,10.131,10.133h12.29L22.533,83.471z M93.145,84.009h17.857V47.508h22.664v-14.47h-22.664v-17.97h30.223V0.48
	h-48.08V84.009z M183.416,49.002c0-13.423-6.067-24.623-25.09-24.623c-10.385,0-18.204,2.802-22.172,5.018l3.268,11.435
	c3.736-2.332,9.918-4.315,15.754-4.315c8.752,0,10.386,4.315,10.386,7.352v0.816c-20.187-0.116-33.491,7.003-33.491,21.822
	c0,9.102,6.885,17.503,18.438,17.503c6.769,0,12.602-2.45,16.335-7.001h0.35l1.053,5.716h15.986
	c-0.584-3.149-0.816-8.399-0.816-13.883V49.002z M166.146,61.953c0,1.051-0.117,2.103-0.351,3.035
	c-1.168,3.618-4.785,6.535-9.22,6.535c-3.966,0-7.002-2.219-7.002-6.77c0-6.885,7.234-9.101,16.572-8.983V61.953z M232.105,68.142
	c-2.685,1.163-5.955,1.864-10.157,1.864c-8.632,0-15.635-5.484-15.635-15.986c-0.117-9.336,5.954-15.989,15.286-15.989
	c4.667,0,7.821,0.818,9.919,1.752l2.802-13.187c-3.734-1.4-8.868-2.217-13.537-2.217c-21.239,0-32.674,13.651-32.674,30.34
	c0,17.97,11.788,29.29,30.224,29.29c6.769,0,12.72-1.285,15.873-2.683L232.105,68.142z M245.067,14.927v10.734h-7.585v13.071h7.585
	v23.339c0,8.051,1.632,13.536,4.901,16.92c2.801,2.917,7.584,5.018,13.302,5.018c5.018,0,9.218-0.698,11.555-1.634l-0.118-13.418
	c-1.75,0.348-2.803,0.466-5.254,0.466c-5.367,0-6.999-3.149-6.999-10.036V38.732h12.72V25.661h-12.72v-15.52L245.067,14.927z
	 M329.268,84.009V25.553h-17.735v58.456H329.268z M340.413,84.009h17.741V51.103c0-1.634,0.234-3.27,0.699-4.436
	c1.165-3.268,4.086-6.65,8.987-6.65c6.417,0,8.981,5.016,8.981,12.367v31.625h17.741V50.167c0-16.805-8.753-24.506-20.424-24.506
	c-9.452,0-15.286,5.485-17.619,9.104h-0.351l-0.818-7.818h-15.402c0.232,5.018,0.464,11.084,0.464,18.203V84.009z M417.813,0.46
	h-17.738v83.549h17.738V66.155l4.549-5.602l13.771,23.455h21.821l-23.339-33.958l20.424-23.104h-21.357l-11.552,17.154
	c-1.399,2.218-2.802,4.551-4.085,6.886h-0.232V0.46z M303.677,0.113h-17.738v83.896h17.738V0.113z M320.342,0.113
	c-5.716,0-9.45,3.848-9.338,8.981c-0.112,4.901,3.622,8.869,9.22,8.869c5.836,0,9.57-3.968,9.57-8.869
	C329.676,3.961,326.06,0.113,320.342,0.113z"/>
</svg>
