<?xml version="1.0" encoding="utf-8"?>
<!-- Generator: Adobe Illustrator 16.0.0, SVG Export Plug-In . SVG Version: 6.00 Build 0)  -->
<!DOCTYPE svg PUBLIC "-//W3C//DTD SVG 1.1 Tiny//EN" "http://www.w3.org/Graphics/SVG/1.1/DTD/svg11-tiny.dtd" [
	<!ENTITY ns_flows "http://ns.adobe.com/Flows/1.0/">
	<!ENTITY ns_extend "http://ns.adobe.com/Extensibility/1.0/">
	<!ENTITY ns_ai "http://ns.adobe.com/AdobeIllustrator/10.0/">
	<!ENTITY ns_graphs "http://ns.adobe.com/Graphs/1.0/">
]>
<svg version="1.1" baseProfile="tiny" id="Layer_1" xmlns:x="&ns_extend;" xmlns:i="&ns_ai;" xmlns:graph="&ns_graphs;"
	 xmlns="http://www.w3.org/2000/svg" xmlns:xlink="http://www.w3.org/1999/xlink" xmlns:a="http://ns.adobe.com/AdobeSVGViewerExtensions/3.0/"
	 x="0px" y="0px" width="141.33px" height="12.457px" viewBox="0 0 141.33 12.457" xml:space="preserve">
<linearGradient id="SVGID_1_" gradientUnits="userSpaceOnUse" x1="70.665" y1="12.457" x2="70.665" y2="4.882812e-04">
	<stop  offset="0.3607" style="stop-color:#000000"/>
	<stop  offset="0.8431" style="stop-color:#333333"/>
	<a:midPointStop  offset="0.3607" style="stop-color:#000000"/>
	<a:midPointStop  offset="0.5" style="stop-color:#000000"/>
	<a:midPointStop  offset="0.8431" style="stop-color:#333333"/>
</linearGradient>
<path fill="url(#SVGID_1_)" d="M106.934,6.383c-0.039,1.125-0.33,2.002-0.872,2.627s-1.371,0.938-2.489,0.938
	c-2.165,0-3.207-1.188-3.124-3.565c0.039-1.143,0.33-2.028,0.872-2.653c0.543-0.625,1.376-0.938,2.502-0.938
	c1.118,0,1.925,0.312,2.424,0.938C106.745,4.355,106.974,5.24,106.934,6.383z M105.212,6.383c0.026-0.744-0.07-1.286-0.291-1.627
	c-0.221-0.342-0.604-0.513-1.148-0.513c-0.542,0-0.939,0.175-1.192,0.525c-0.253,0.351-0.393,0.89-0.418,1.616
	c-0.024,0.722,0.076,1.254,0.303,1.595c0.227,0.342,0.613,0.513,1.158,0.513c0.538,0,0.93-0.168,1.179-0.506
	C105.05,7.647,105.187,7.114,105.212,6.383z M112.34,4.611c-0.169-0.086-0.396-0.129-0.679-0.129c-0.311,0-0.605,0.074-0.889,0.222
	c-0.282,0.15-0.872,0.533-0.899,1.308l-0.131,3.737h-1.663l0.236-6.763h1.663l-0.033,0.967c0.294-0.31,0.585-0.614,0.941-0.769
	c0.65-0.28,1.364-0.257,1.508-0.167L112.34,4.611z M134.394,4.611c-0.168-0.086-0.396-0.129-0.679-0.129
	c-0.309,0-0.604,0.074-0.887,0.222c-0.283,0.15-0.873,0.533-0.9,1.308l-0.131,3.737h-1.663l0.236-6.763h1.663L132,3.954
	c0.294-0.31,0.585-0.614,0.942-0.769c0.649-0.28,1.362-0.257,1.506-0.167L134.394,4.611z M120.399,9.749h-1.514l-1.372-4.307
	l-1.677,4.307h-1.521l-1.608-6.763h1.728l0.893,4.358l1.667-4.358h1.258l1.376,4.319l1.157-4.319h1.663L120.399,9.749z
	 M127.046,9.749l0.024-0.703c-0.679,0.602-1.395,0.902-2.146,0.902c-0.748,0-1.307-0.196-1.676-0.59
	c-0.368-0.393-0.542-0.896-0.521-1.512c0.018-0.48,0.129-0.879,0.335-1.192c0.207-0.315,0.505-0.561,0.896-0.739
	c0.391-0.177,0.948-0.303,1.672-0.377l1.431-0.135l0.01-0.303c0.014-0.377-0.091-0.636-0.313-0.776
	c-0.225-0.14-0.555-0.209-0.993-0.209c-0.36,0-0.673,0.06-0.938,0.18c-0.265,0.12-0.462,0.292-0.595,0.516l-1.267-0.832
	c0.24-0.383,0.608-0.676,1.101-0.879c0.493-0.204,1.083-0.306,1.771-0.306c1.053,0,1.805,0.184,2.259,0.55
	c0.453,0.368,0.666,0.971,0.637,1.809l-0.161,4.597H127.046z M127.02,6.609l-0.847,0.077c-0.6,0.051-1.034,0.166-1.305,0.341
	c-0.271,0.177-0.412,0.44-0.424,0.795c-0.012,0.309,0.067,0.521,0.235,0.634s0.394,0.17,0.678,0.17c0.201,0,0.45-0.062,0.745-0.189
	c0.294-0.127,0.585-0.306,0.872-0.539L127.02,6.609z M139.667,0.05l-0.116,3.339c-0.213-0.202-0.484-0.369-0.814-0.5
	c-0.331-0.131-0.655-0.196-0.974-0.196c-0.898,0-1.605,0.318-2.125,0.955c-0.518,0.636-0.798,1.528-0.839,2.676
	c-0.039,1.121,0.157,1.988,0.586,2.604c0.431,0.615,1.071,0.922,1.922,0.922c0.438,0,0.832-0.076,1.182-0.232
	c0.299-0.132,0.586-0.307,0.862-0.518l-0.022,0.646h0.001l-0.001,0.005h1.663l0.339-9.699H139.667z M137.802,8.379
	c-0.464,0-0.801-0.185-1.009-0.554c-0.209-0.371-0.302-0.88-0.278-1.529c0.022-0.658,0.176-1.179,0.461-1.562
	c0.284-0.385,0.649-0.578,1.097-0.578c0.271,0,0.534,0.061,0.789,0.185c0.256,0.122,0.643,0.348,0.617,1.082l-0.069,1.969
	c-0.016,0.443-0.469,0.67-0.759,0.797C138.36,8.315,138.078,8.379,137.802,8.379z M5.312,6.753c0.009,0.602,0.14,1.033,0.393,1.295
	c0.253,0.264,0.661,0.394,1.224,0.394c0.327,0,0.615-0.042,0.865-0.122c0.25-0.082,0.471-0.238,0.665-0.472l1.207,0.884
	C9.38,9.122,9.019,9.415,8.581,9.609c-0.439,0.192-1.032,0.289-1.78,0.289c-1.113,0-1.934-0.293-2.461-0.877
	C3.812,8.438,3.569,7.555,3.61,6.373c0.084-2.42,1.209-3.63,3.376-3.63c0.962,0,1.687,0.271,2.173,0.815
	C9.645,4.103,9.87,4.893,9.833,5.934L9.805,6.753H5.312z M8.195,5.605c0.036-1.027-0.396-1.542-1.293-1.542
	c-0.297,0-0.541,0.051-0.734,0.151c-0.193,0.101-0.349,0.251-0.47,0.451c-0.121,0.201-0.221,0.512-0.3,0.939H8.195z M12.417,6.753
	c0.008,0.602,0.14,1.033,0.392,1.295c0.254,0.264,0.662,0.394,1.225,0.394c0.327,0,0.615-0.042,0.865-0.122
	c0.25-0.082,0.472-0.238,0.665-0.472l1.206,0.884c-0.284,0.391-0.646,0.684-1.084,0.878c-0.438,0.192-1.032,0.289-1.78,0.289
	c-1.113,0-1.933-0.293-2.46-0.877c-0.528-0.583-0.771-1.467-0.73-2.649c0.084-2.42,1.209-3.63,3.376-3.63
	c0.961,0,1.686,0.271,2.172,0.815c0.486,0.545,0.711,1.335,0.674,2.376l-0.028,0.819H12.417z M15.299,5.605
	c0.036-1.027-0.396-1.542-1.294-1.542c-0.296,0-0.541,0.051-0.733,0.151c-0.193,0.101-0.349,0.251-0.47,0.451
	c-0.121,0.201-0.221,0.512-0.3,0.939H15.299z M37.198,9.698l0.024-0.702c-0.679,0.601-1.394,0.902-2.146,0.902
	c-0.748,0-1.306-0.196-1.674-0.591c-0.369-0.393-0.543-0.896-0.521-1.512c0.017-0.481,0.128-0.878,0.334-1.191
	c0.207-0.314,0.506-0.561,0.896-0.738c0.392-0.178,0.949-0.304,1.674-0.377l1.43-0.136l0.011-0.303
	c0.013-0.378-0.092-0.637-0.315-0.777c-0.223-0.14-0.553-0.209-0.992-0.209c-0.36,0-0.673,0.061-0.938,0.18
	c-0.265,0.122-0.462,0.293-0.595,0.516l-1.267-0.832c0.241-0.382,0.608-0.675,1.101-0.88c0.492-0.204,1.083-0.306,1.771-0.306
	c1.053,0,1.807,0.184,2.26,0.551c0.452,0.368,0.665,0.971,0.636,1.809l-0.16,4.596H37.198z M37.172,6.559l-0.849,0.077
	c-0.6,0.051-1.034,0.165-1.304,0.343c-0.271,0.176-0.412,0.44-0.425,0.792c-0.011,0.31,0.068,0.521,0.236,0.635
	C35,8.52,35.225,8.577,35.509,8.577c0.201,0,0.45-0.064,0.745-0.19c0.294-0.127,0.585-0.306,0.872-0.539L37.172,6.559z
	 M45.909,8.731c-0.271,0.383-0.622,0.673-1.049,0.87c-0.429,0.197-0.965,0.297-1.609,0.297c-1.092,0-1.906-0.298-2.444-0.894
	C40.268,8.41,40.02,7.527,40.06,6.358c0.04-1.139,0.342-2.025,0.905-2.661c0.564-0.637,1.388-0.955,2.47-0.955
	c0.581,0,1.095,0.094,1.541,0.284c0.447,0.189,0.781,0.481,1.004,0.876l-1.269,0.883c-0.144-0.202-0.313-0.351-0.512-0.448
	c-0.2-0.096-0.458-0.145-0.775-0.145c-0.568,0-0.978,0.174-1.23,0.522s-0.392,0.887-0.417,1.618
	c-0.026,0.731,0.079,1.264,0.314,1.601c0.234,0.338,0.65,0.507,1.249,0.507c0.257,0,0.496-0.037,0.713-0.109
	c0.217-0.074,0.427-0.235,0.63-0.484L45.909,8.731z M50.967,9.698L49.26,6.901l-0.676,0.696l-0.073,2.102h-1.663l0.335-9.599h1.663
	l-0.191,5.493l2.368-2.656h1.928l-2.652,2.844l2.558,3.919H50.967z M22.689,0l-0.116,3.339c-0.212-0.203-0.484-0.369-0.814-0.5
	s-0.654-0.197-0.973-0.197c-0.898,0-1.607,0.318-2.125,0.954c-0.519,0.636-0.798,1.528-0.838,2.675
	c-0.039,1.123,0.156,1.99,0.585,2.604c0.43,0.615,1.07,0.922,1.922,0.922c0.438,0,0.831-0.076,1.182-0.23
	c0.299-0.134,0.586-0.308,0.861-0.52l-0.022,0.65h0.002L22.35,9.703h1.663L24.353,0H22.689z M20.826,8.329
	c-0.465,0-0.801-0.186-1.009-0.555c-0.209-0.37-0.301-0.88-0.278-1.528c0.022-0.658,0.176-1.179,0.461-1.564
	c0.285-0.384,0.649-0.576,1.096-0.576c0.271,0,0.534,0.062,0.79,0.184c0.256,0.123,0.642,0.348,0.616,1.082l-0.069,1.97
	c-0.015,0.442-0.469,0.67-0.759,0.797S21.1,8.329,20.826,8.329z M25.918,0L25.58,9.703h1.664l-0.001-0.005h0.002l0.022-0.65
	c0.262,0.212,0.536,0.386,0.826,0.52c0.339,0.154,0.727,0.23,1.165,0.23c0.852,0,1.513-0.307,1.985-0.922
	c0.473-0.614,0.729-1.481,0.769-2.604c0.04-1.147-0.178-2.04-0.651-2.675c-0.475-0.637-1.161-0.955-2.06-0.955
	c-0.317,0-0.646,0.066-0.986,0.197c-0.339,0.131-0.623,0.297-0.849,0.5L27.583,0H25.918z M28.031,8.139
	c-0.282-0.127-0.72-0.354-0.704-0.797l0.068-1.97c0.026-0.734,0.428-0.959,0.692-1.082c0.264-0.122,0.531-0.184,0.803-0.184
	c0.447,0,0.799,0.192,1.056,0.577s0.375,0.906,0.352,1.563c-0.022,0.648-0.15,1.158-0.385,1.528
	c-0.234,0.369-0.584,0.555-1.048,0.555C28.589,8.329,28.312,8.266,28.031,8.139z M86.75,9.618c-0.031,0.918-0.338,1.604-0.919,2.053
	c-0.58,0.447-1.494,0.672-2.742,0.672c-1.029,0-1.922-0.197-2.679-0.592l0.548-1.385c0.702,0.332,1.429,0.499,2.183,0.499
	c0.7,0,1.191-0.101,1.472-0.302c0.281-0.202,0.429-0.541,0.445-1.02l0.02-0.563c-0.577,0.513-1.263,0.769-2.056,0.769
	c-0.84,0-1.491-0.303-1.952-0.906c-0.46-0.604-0.671-1.474-0.631-2.608c0.024-0.709,0.159-1.334,0.403-1.876
	c0.245-0.54,0.59-0.958,1.036-1.254c0.446-0.296,0.978-0.443,1.595-0.443c0.363,0,0.725,0.081,1.082,0.239
	c0.357,0.161,0.655,0.363,0.892,0.608l0.246-0.65h1.294L86.75,9.618z M85.225,4.77c-0.449-0.411-0.948-0.617-1.495-0.617
	c-0.412,0-0.767,0.188-1.064,0.565c-0.298,0.376-0.457,0.873-0.479,1.491c-0.024,0.7,0.083,1.218,0.323,1.55
	s0.562,0.499,0.965,0.499c0.56,0,1.111-0.226,1.651-0.677L85.225,4.77z M94.23,6.321c-0.04,1.147-0.337,2.04-0.889,2.676
	c-0.553,0.637-1.397,0.955-2.536,0.955c-2.206,0-3.268-1.211-3.183-3.631c0.04-1.165,0.337-2.066,0.889-2.703
	c0.552-0.639,1.401-0.956,2.549-0.956c1.139,0,1.961,0.317,2.469,0.956C94.037,4.254,94.27,5.156,94.23,6.321z M92.476,6.321
	c0.026-0.757-0.072-1.311-0.297-1.659c-0.224-0.347-0.615-0.522-1.171-0.522c-0.552,0-0.956,0.179-1.214,0.535
	c-0.258,0.357-0.399,0.905-0.425,1.646c-0.026,0.735,0.076,1.277,0.307,1.625c0.231,0.349,0.625,0.522,1.181,0.522
	c0.548,0,0.947-0.172,1.2-0.516S92.45,7.065,92.476,6.321z M62.602,8.453l-3.201-2.177L62.602,4.1V8.453z M70.516,4.1l3.201,2.176
	l-3.201,2.177V4.1z M71.455,0.096c-1.852,0-3.59,0.822-4.771,2.256c-0.909,1.103-1.409,2.497-1.409,3.925
	c0,2.086-1.697,3.783-3.783,3.783s-3.783-1.697-3.783-3.783H55.31c0,3.408,2.772,6.181,6.181,6.181c1.851,0,3.589-0.822,4.771-2.256
	c0.909-1.103,1.41-2.497,1.41-3.925c0-2.086,1.697-3.783,3.783-3.783c2.085,0,3.782,1.697,3.782,3.783h2.397
	C77.634,2.868,74.862,0.096,71.455,0.096z M61.491,2.493c1.262,0,2.425,0.63,3.122,1.65c0.259-0.826,0.665-1.603,1.196-2.282
	c-1.163-1.14-2.688-1.765-4.318-1.765c-3.408,0-6.181,2.772-6.181,6.181h2.397C57.708,4.19,59.405,2.493,61.491,2.493z
	 M71.455,10.06c-1.263,0-2.425-0.631-3.122-1.65c-0.259,0.826-0.665,1.604-1.197,2.281c1.163,1.141,2.688,1.767,4.319,1.767
	c3.407,0,6.18-2.772,6.18-6.181h-2.397C75.237,8.362,73.54,10.06,71.455,10.06z M3.66,1.605C3.357,1.503,3.064,1.453,2.779,1.453
	c-0.323,0-0.547,0.067-0.673,0.201C1.981,1.787,1.912,2.024,1.9,2.364l-0.022,0.65h1.357L3.189,4.32H1.832L1.644,9.698H0
	l0.256-7.334c0.029-0.829,0.255-1.427,0.678-1.797S1.98,0.013,2.804,0.013c0.387,0,0.795,0.053,1.224,0.159L3.66,1.605z
	 M100.329,1.655c-0.304-0.102-0.597-0.153-0.881-0.153c-0.323,0-0.548,0.067-0.674,0.201c-0.125,0.134-0.194,0.371-0.206,0.71
	l-0.022,0.65h1.357L99.857,4.37H98.5l-0.188,5.378h-1.644l0.256-7.334c0.028-0.829,0.254-1.427,0.678-1.797
	c0.422-0.37,1.046-0.555,1.87-0.555c0.387,0,0.794,0.053,1.224,0.16L100.329,1.655z"/>
</svg>
