<?xml version="1.0" encoding="utf-8"?>
<!-- Generator: Adobe Illustrator 16.0.0, SVG Export Plug-In . SVG Version: 6.00 Build 0)  -->
<!DOCTYPE svg PUBLIC "-//W3C//DTD SVG 1.1 Tiny//EN" "http://www.w3.org/Graphics/SVG/1.1/DTD/svg11-tiny.dtd" [
	<!ENTITY ns_flows "http://ns.adobe.com/Flows/1.0/">
	<!ENTITY ns_extend "http://ns.adobe.com/Extensibility/1.0/">
	<!ENTITY ns_ai "http://ns.adobe.com/AdobeIllustrator/10.0/">
	<!ENTITY ns_graphs "http://ns.adobe.com/Graphs/1.0/">
]>
<svg version="1.1" baseProfile="tiny" id="Layer_1" xmlns:x="&ns_extend;" xmlns:i="&ns_ai;" xmlns:graph="&ns_graphs;"
	 xmlns="http://www.w3.org/2000/svg" xmlns:xlink="http://www.w3.org/1999/xlink" xmlns:a="http://ns.adobe.com/AdobeSVGViewerExtensions/3.0/"
	 x="0px" y="0px" width="463.345px" height="86.175px" viewBox="0 0 463.345 86.175" xml:space="preserve">
<linearGradient id="SVGID_1_" gradientUnits="userSpaceOnUse" x1="231.6719" y1="85.4126" x2="231.6719" y2="0.7632">
	<stop  offset="0" style="stop-color:#727373"/>
	<stop  offset="1" style="stop-color:#000000"/>
	<a:midPointStop  offset="0" style="stop-color:#727373"/>
	<a:midPointStop  offset="0.5" style="stop-color:#727373"/>
	<a:midPointStop  offset="1" style="stop-color:#000000"/>
</linearGradient>
<path fill="url(#SVGID_1_)" d="M78.962,2.395C57.479,20.679,39.134,41.962,21.831,64.17l0,0c-6.819-3.621-14.218-8.32-20.99-11.55
	L0.66,52.279V11.356c0-5.647,4.576-10.223,10.222-10.223h63.593c1.61,0,3.132,0.371,4.486,1.033L78.962,2.395z M83.691,7.304
	c-20.019,22.713-38.505,48.72-52.479,77.611l0.038,0.258c14.389,0,43.228,0,43.225,0c5.648,0,10.225-4.576,10.225-10.225V11.356
	c0-1.436-0.296-2.803-0.832-4.042L83.691,7.304z M23.351,84.87C15.294,76.811,8.306,67.858,0.876,59.489L0.66,59.514v15.434
	c0,5.648,4.576,10.225,10.222,10.225h12.401L23.351,84.87z M94.597,85.413h18.018v-36.83h22.868v-14.6h-22.868V15.853h30.494V1.134
	H94.597V85.413z M185.679,50.091c0-13.543-6.121-24.844-25.314-24.844c-10.479,0-18.368,2.826-22.371,5.062l3.297,11.537
	c3.77-2.354,10.007-4.354,15.896-4.354c8.83,0,10.479,4.354,10.479,7.418v0.823c-20.368-0.117-33.792,7.066-33.792,22.019
	c0,9.184,6.946,17.66,18.604,17.66c6.829,0,12.715-2.473,16.481-7.064h0.353l1.062,5.768h16.13
	c-0.59-3.178-0.824-8.475-0.824-14.008V50.091z M168.254,63.159c0,1.061-0.118,2.121-0.354,3.062
	c-1.179,3.65-4.828,6.594-9.303,6.594c-4.001,0-7.064-2.238-7.064-6.83c0-6.947,7.3-9.183,16.721-9.065V63.159z M234.806,69.403
	c-2.709,1.174-6.008,1.881-10.248,1.881c-8.71,0-15.775-5.533-15.775-16.13c-0.118-9.42,6.008-16.133,15.424-16.133
	c4.709,0,7.891,0.826,10.008,1.768l2.826-13.305c-3.768-1.413-8.947-2.236-13.658-2.236c-21.43,0-32.967,13.773-32.967,30.612
	c0,18.131,11.894,29.553,30.495,29.553c6.829,0,12.833-1.297,16.015-2.707L234.806,69.403z M247.884,15.71v10.83h-7.652v13.189
	h7.652v23.548c0,8.123,1.646,13.658,4.945,17.072c2.826,2.943,7.652,5.062,13.422,5.062c5.062,0,9.301-0.705,11.658-1.648
	l-0.119-13.539c-1.766,0.352-2.828,0.471-5.301,0.471c-5.416,0-7.062-3.178-7.062-10.127V39.729h12.834V26.54h-12.834V10.882
	L247.884,15.71z M332.841,85.413V26.431h-17.895v58.982H332.841z M344.087,85.413h17.9V52.21c0-1.648,0.236-3.299,0.705-4.475
	c1.176-3.297,4.123-6.711,9.068-6.711c6.475,0,9.062,5.062,9.062,12.479v31.91h17.9V51.267c0-16.956-8.832-24.727-20.607-24.727
	c-9.537,0-15.424,5.535-17.777,9.186h-0.354l-0.826-7.889h-15.541c0.234,5.062,0.469,11.184,0.469,18.367V85.413z M422.183,1.112
	h-17.898v84.3h17.898V67.399l4.59-5.652l13.895,23.666h22.018l-23.549-34.263l20.607-23.312h-21.549l-11.656,17.309
	c-1.412,2.237-2.826,4.592-4.121,6.947h-0.234V1.112z M307.021,0.763h-17.898v84.65h17.898V0.763z M323.835,0.763
	c-5.768,0-9.535,3.883-9.422,9.062c-0.113,4.945,3.654,8.949,9.303,8.949c5.889,0,9.656-4.004,9.656-8.949
	C333.253,4.646,329.604,0.763,323.835,0.763z"/>
</svg>
